<svg xmlns="http://www.w3.org/2000/svg" viewBox="0 0 200 200">
  <path d="M141.97 133.47H58.03c-6.54 0-11.85-5.3-11.85-11.85V100.7c0-4.02 2.04-7.77 5.42-9.95l41.97-27.08c3.91-2.52 8.93-2.52 12.84 0l41.97 27.08c3.38 2.18 5.42 5.93 5.42 9.95v20.92c0 6.54-5.3 11.85-11.85 11.85Z" style="fill:#497bed;stroke:#000;stroke-miterlimit:10;stroke-width:6px"/>
  <path d="M96.37 118.31c-.29 0-.54-.11-.77-.32a1.03 1.03 0 0 1-.34-.79V89.52c0-.31.11-.58.34-.79.23-.21.48-.32.77-.32h7.26c.31 0 .58.11.79.32.21.21.32.48.32.79v27.68c0 .31-.11.58-.32.79s-.48.32-.79.32h-7.26Z" style="fill:#000;stroke-width:0"/>
</svg>
