<svg xmlns="http://www.w3.org/2000/svg" viewBox="0 0 200 200">
  <path d="M147.89 72.13v55.74c0 6.54-5.3 11.85-11.85 11.85H97.75c-2.75 0-5.41-.96-7.54-2.71l-33.79-27.87c-5.75-4.74-5.75-13.54 0-18.28l33.79-27.87c2.12-1.75 4.79-2.71 7.54-2.71h38.29c6.54 0 11.85 5.3 11.85 11.85Z" style="fill:#497bed;stroke:#000;stroke-miterlimit:10;stroke-width:6px"/>
  <path d="M107.26 113.09c-1.71 0-3.33-.22-4.87-.66-1.54-.44-2.91-1.09-4.12-1.94a9.381 9.381 0 0 1-2.86-3.16c-.7-1.25-1.06-2.71-1.09-4.36 0-.26.08-.48.26-.66.17-.18.38-.28.64-.28h7.26c.46 0 .79.1 1 .3s.41.53.58.98c.2.57.45 1.05.75 1.43s.68.66 1.13.83c.46.17.98.26 1.58.26 1.11 0 1.97-.36 2.58-1.07.61-.71.92-1.84.92-3.38V90.27H97.74c-.31 0-.58-.11-.79-.32-.21-.21-.32-.48-.32-.79v-5.3c0-.31.11-.58.32-.79.21-.21.48-.32.79-.32h21.66c.31 0 .58.11.79.32.21.21.32.48.32.79v17.81c0 2.53-.58 4.65-1.73 6.34-1.15 1.69-2.73 2.96-4.74 3.8s-4.27 1.26-6.77 1.26Z" style="fill:#000;stroke-width:0"/>
</svg>
